<?xml version="1.0" standalone="no"?><!DOCTYPE svg PUBLIC "-//W3C//DTD SVG 1.1//EN" "http://www.w3.org/Graphics/SVG/1.1/DTD/svg11.dtd"><svg t="1488945548553" class="icon" style="" viewBox="0 0 1024 1024" version="1.1" xmlns="http://www.w3.org/2000/svg" p-id="7813" xmlns:xlink="http://www.w3.org/1999/xlink" width="16" height="16"><defs><style type="text/css"></style></defs><path d="M275.03759 63.454621c-117.595152 0-212.929609 95.336464-212.929609 212.929609 0 117.60318 95.334457 212.939644 212.929609 212.939644h212.93563V276.38423c0-117.593145-95.334457-212.929609-212.93563-212.929609z m178.804036 391.737659h-178.802029c-98.589672 0-178.796008-80.212357-178.796008-178.806043 0-98.589672 80.208343-178.796008 178.796008-178.796008 98.591679 0 178.802029 80.208343 178.802029 178.796008v178.806043zM748.023174 63.452614c-117.60318 0-212.937637 95.340478-212.937637 212.93563v212.931616h212.937637c117.601173 0 212.931616-95.336464 212.931616-212.931616S865.620333 63.452614 748.023174 63.452614z m0 391.733645h-178.804036v-178.798015c0-98.591679 80.212357-178.802029 178.804036-178.802029 98.589672 0 178.798015 80.21035 178.798015 178.802029-0.002007 98.589672-80.208343 178.798015-178.798015 178.798015zM748.01916 536.426156H535.089551v212.939643c0 117.599166 95.330443 212.929609 212.929609 212.929609 117.595152 0 212.931616-95.330443 212.931616-212.929609-0.002007-117.605187-95.338471-212.939644-212.931616-212.939643z m0 391.733645c-98.587665 0-178.796008-80.208343-178.796008-178.796009v-178.806042h178.796008c98.589672 0 178.798015 80.212357 178.798015 178.806042 0 98.589672-80.208343 178.796008-178.798015 178.796009zM275.03759 536.426156c-117.595152 0-212.929609 95.33245-212.929609 212.931616 0 117.593145 95.334457 212.929609 212.929609 212.929609 117.607194 0 212.941651-95.338471 212.941651-212.929609V536.426156H275.03759z m178.80805 212.931616c0 98.587665-80.212357 178.796008-178.80805 178.796008-98.589672 0-178.796008-80.208343-178.796008-178.796008 0-98.589672 80.208343-178.798015 178.796008-178.798015h178.80805v178.798015z" fill="#666666" p-id="7814"></path><path d="M458.688325 369.14783h10.596508v10.596508h-10.596508v-10.596508z" fill="#666666" p-id="7815"></path></svg>