<?xml version="1.0" standalone="no"?><!DOCTYPE svg PUBLIC "-//W3C//DTD SVG 1.1//EN" "http://www.w3.org/Graphics/SVG/1.1/DTD/svg11.dtd"><svg t="1488945828562" class="icon" style="" viewBox="0 0 1024 1024" version="1.1" xmlns="http://www.w3.org/2000/svg" p-id="12948" xmlns:xlink="http://www.w3.org/1999/xlink" width="16" height="16"><defs><style type="text/css"></style></defs><path d="M116.363636 349.090909v558.778182A116.130909 116.130909 0 0 0 232.448 1024h559.104a116.317091 116.317091 0 0 0 116.084364-116.130909V349.090909a23.272727 23.272727 0 1 0-46.545455 0v558.778182c0 38.213818-31.278545 69.585455-69.538909 69.585454H232.448C194.094545 977.454545 162.909091 946.269091 162.909091 907.869091V349.090909a23.272727 23.272727 0 0 0-46.545455 0z" p-id="12949" fill="#666666"></path><path d="M605.090909 302.545455V791.272727a23.272727 23.272727 0 1 0 46.545455 0V302.545455a23.272727 23.272727 0 1 0-46.545455 0zM372.363636 302.545455L373.108364 791.272727a23.272727 23.272727 0 1 0 46.545454 0L418.909091 302.545455a23.272727 23.272727 0 0 0-46.545455 0zM46.545455 186.181818h151.086545c38.586182 0 88.762182-20.759273 116.177455-48.174545l33.652363-33.652364c18.525091-18.525091 56.925091-34.536727 82.757818-34.536727h163.560728c25.925818 0 64.046545 15.825455 82.757818 34.536727l33.652363 33.652364C737.512727 165.329455 787.642182 186.181818 826.368 186.181818H977.454545a23.272727 23.272727 0 1 0 0-46.545454h-151.086545c-26.344727 0-64.698182-15.965091-83.269818-34.536728l-33.652364-33.652363C682.030545 43.985455 632.087273 23.272727 593.780364 23.272727H430.219636c-38.213818 0-88.436364 20.945455-115.665454 48.174546l-33.652364 33.652363C262.190545 123.810909 223.883636 139.636364 197.632 139.636364H46.545455a23.272727 23.272727 0 0 0 0 46.545454z" p-id="12950" fill="#666666"></path></svg>