<?xml version="1.0" standalone="no"?><!DOCTYPE svg PUBLIC "-//W3C//DTD SVG 1.1//EN" "http://www.w3.org/Graphics/SVG/1.1/DTD/svg11.dtd"><svg t="1488945677860" class="icon" style="" viewBox="0 0 1136 1024" version="1.1" xmlns="http://www.w3.org/2000/svg" p-id="9672" xmlns:xlink="http://www.w3.org/1999/xlink" width="17.75" height="16"><defs><style type="text/css"></style></defs><path d="M1039.279 343.351v544.82c0 28.684-23.089 51.937-51.884 51.937h-830.286c-28.655 0-51.884-23.073-51.884-51.937v-726.396c0-28.684 23.089-51.938 51.884-51.938h648.656c14.33 0 25.946-11.617 25.946-25.946 0-14.33-11.617-25.946-25.946-25.946h-648.648c-57.174 0-103.784 46.352-103.784 103.529v726.997c0 57.209 46.466 103.529 103.784 103.529h830.269c57.174 0 103.784-46.352 103.784-103.529v-545.12c0-14.33-11.617-25.946-25.946-25.946-14.33 0-25.946 11.617-25.946 25.946z" p-id="9673" fill="#00C584"></path><path d="M1091.711 20.713l36.693 36.693-660.476 660.476-36.693-36.693 660.476-660.476z" p-id="9674" fill="#00C584"></path></svg>