<?xml version="1.0" standalone="no"?><!DOCTYPE svg PUBLIC "-//W3C//DTD SVG 1.1//EN" "http://www.w3.org/Graphics/SVG/1.1/DTD/svg11.dtd"><svg t="1488945422560" class="icon" style="" viewBox="0 0 1024 1024" version="1.1" xmlns="http://www.w3.org/2000/svg" p-id="7003" xmlns:xlink="http://www.w3.org/1999/xlink" width="16" height="16"><defs><style type="text/css"></style></defs><path d="M549.328 1024C287.6 1024 93.408 831.696 93.408 569.952 93.408 552.272 107.744 537.952 125.408 537.952 143.088 537.952 157.424 552.272 157.424 569.952 157.424 796.416 322.896 960 549.328 960 775.776 960 960 775.776 960 549.312 960 322.864 802.048 157.408 575.584 157.408 557.92 157.408 543.584 143.088 543.584 125.408 543.584 107.744 557.92 93.408 575.584 93.408 837.328 93.408 1024 287.584 1024 549.312 1024 811.056 811.056 1024 549.328 1024ZM448.24 480.24 32 480.24C14.32 480.24 0 465.92 0 448.24 0 199.008 199.008 0 448.24 0 465.92 0 480.24 14.32 480.24 32L480.24 448.24C480.24 465.92 465.92 480.24 448.24 480.24ZM416.24 65.312C227.76 80.768 80.768 227.76 65.312 416.24L416.24 416.24 416.24 65.312Z" p-id="7004" fill="#00C584"></path></svg>