<?xml version="1.0" standalone="no"?><!DOCTYPE svg PUBLIC "-//W3C//DTD SVG 1.1//EN" "http://www.w3.org/Graphics/SVG/1.1/DTD/svg11.dtd"><svg t="1488946145313" class="icon" style="" viewBox="0 0 1056 1024" version="1.1" xmlns="http://www.w3.org/2000/svg" p-id="2334" xmlns:xlink="http://www.w3.org/1999/xlink" width="16.5" height="16"><defs><style type="text/css"></style></defs><path d="M527.515152 0C253.765818 0 31.030303 222.735515 31.030303 496.484848s222.735515 496.484848 496.484848 496.484848 496.484848-222.735515 496.484848-496.484848S801.264485 0 527.515152 0zM527.515152 930.909091C287.961212 930.909091 93.090909 736.038788 93.090909 496.484848S287.961212 62.060606 527.515152 62.060606s434.424242 194.870303 434.424242 434.424242S767.069091 930.909091 527.515152 930.909091zM743.39297 439.513212l-265.588364-144.166788c-12.598303-6.888727-26.127515-10.519273-39.191273-10.519273-38.415515 0-66.280727 29.478788-66.280727 70.097455l0 283.151515c0 40.618667 27.865212 70.097455 66.280727 70.097455 13.032727 0 26.59297-3.630545 39.098182-10.426182L744.727273 553.425455c24.172606-13.156848 38.043152-33.667879 38.043152-56.257939C782.770424 474.14303 768.434424 453.135515 743.39297 439.513212zM715.124364 498.874182l-266.984727 144.290909c-4.654545 2.544485-7.943758 2.916848-9.495273 2.916848-1.675636 0-4.220121 0-4.220121-8.036848l0-283.151515c0-8.036848 2.544485-8.036848 4.220121-8.036848 1.520485 0 4.809697 0.372364 9.526303 2.947879l265.588364 144.197818c1.954909 1.024 3.382303 2.01697 4.530424 2.916848C717.451636 497.539879 716.396606 498.222545 715.124364 498.874182z" p-id="2335" fill="#666666"></path></svg>