<?xml version="1.0" standalone="no"?><!DOCTYPE svg PUBLIC "-//W3C//DTD SVG 1.1//EN" "http://www.w3.org/Graphics/SVG/1.1/DTD/svg11.dtd"><svg t="1489041607824" class="icon" style="" viewBox="0 0 1024 1024" version="1.1" xmlns="http://www.w3.org/2000/svg" p-id="2240" xmlns:xlink="http://www.w3.org/1999/xlink" width="14" height="14"><defs><style type="text/css"></style></defs><path d="M512 946.905134c-58.700937 0-115.659183-11.501962-169.292708-34.187637-51.791573-21.905916-98.299817-53.261041-138.231271-93.192495-39.932478-39.932478-71.287603-86.441744-93.193519-138.232295-22.685675-53.633524-34.187637-110.591771-34.187637-169.292708 0-58.700937 11.501962-115.659183 34.187637-169.292708 21.905916-51.791573 53.260018-98.299817 93.193519-138.231271 39.932478-39.932478 86.440721-71.287603 138.231271-93.193519 53.633524-22.685675 110.591771-34.187637 169.292708-34.187637 58.699913 0 115.65816 11.501962 169.292708 34.187637 51.79055 21.905916 98.299817 53.260018 138.232295 93.193519 39.931454 39.932478 71.28658 86.440721 93.192495 138.231271 22.685675 53.633524 34.187637 110.591771 34.187637 169.292708 0 58.699913-11.501962 115.65816-34.187637 169.292708-21.905916 51.79055-53.261041 98.299817-93.192495 138.232295-39.932478 39.931454-86.441744 71.28658-138.232295 93.192495C627.65816 935.403173 570.699913 946.905134 512 946.905134zM512 128.260176c-102.500489 0-198.866257 39.916105-271.346011 112.394836-72.478731 72.479755-112.394836 168.845523-112.394836 271.346011s39.916105 198.866257 112.394836 271.344988c72.479755 72.478731 168.844499 112.394836 271.346011 112.394836s198.865233-39.916105 271.344988-112.394836c72.478731-72.479755 112.394836-168.844499 112.394836-271.344988S855.82372 313.133743 783.344988 240.655012C710.866257 168.175257 614.500489 128.260176 512 128.260176z" p-id="2241" fill="#00C584"></path><path d="M512 512m-204.66124 0a200 200 0 1 0 409.322479 0 200 200 0 1 0-409.322479 0Z" p-id="2242" fill="#00C584"></path></svg>