<?xml version="1.0" standalone="no"?><!DOCTYPE svg PUBLIC "-//W3C//DTD SVG 1.1//EN" "http://www.w3.org/Graphics/SVG/1.1/DTD/svg11.dtd"><svg t="1489041629975" class="icon" style="" viewBox="0 0 1024 1024" version="1.1" xmlns="http://www.w3.org/2000/svg" p-id="2493" xmlns:xlink="http://www.w3.org/1999/xlink" width="14" height="14"><defs><style type="text/css"></style></defs><path d="M512 128.776945c-211.657258 0-383.23914 171.57468-383.23914 383.223055 0 211.647351 171.581882 383.223055 383.23914 383.223055S895.23914 723.647351 895.23914 512C895.23914 300.351626 723.657258 128.776945 512 128.776945zM728.833358 728.824257c-57.918492 57.916061-134.924492 89.811492-216.834381 89.811492-81.908866 0-158.914866-31.895431-216.833358-89.811492-57.918492-57.915038-89.815261-134.918829-89.815261-216.824257s31.89677-158.90922 89.815261-216.82528 134.924492-89.811492 216.833358-89.811492c81.908866 0 158.914866 31.895431 216.834381 89.811492s89.815261 134.918829 89.815261 216.82528S786.75185 670.908196 728.833358 728.824257z" p-id="2494" fill="#bbbbbb"></path></svg>