<?xml version="1.0" standalone="no"?><!DOCTYPE svg PUBLIC "-//W3C//DTD SVG 1.1//EN" "http://www.w3.org/Graphics/SVG/1.1/DTD/svg11.dtd"><svg t="1488945740273" class="icon" style="" viewBox="0 0 1024 1024" version="1.1" xmlns="http://www.w3.org/2000/svg" p-id="10491" xmlns:xlink="http://www.w3.org/1999/xlink" width="16" height="16"><defs><style type="text/css"></style></defs><path d="M512 13.056C236.416 13.056 12.992 236.416 12.992 512S236.416 1011.008 512 1011.008c275.584 0 499.008-223.36 499.008-498.944S787.584 13.056 512 13.056zM512 961.152c-247.616 0-449.088-201.344-449.088-449.088 0-247.616 201.472-449.152 449.088-449.152 247.68 0 449.088 201.472 449.088 449.152C961.088 759.744 759.68 961.152 512 961.152zM541.44 476.032 541.44 280.512c0-4.672-1.856-9.28-5.056-12.544C533.248 264.704 528.768 262.784 524.224 262.784L479.232 262.784c-4.544 0-8.96 1.92-12.096 5.248C463.936 271.296 462.08 275.84 462.08 280.512l0 230.848c0 4.672 1.856 9.28 5.056 12.544 1.344 1.344 2.752 2.432 4.416 3.264l189.632 131.328c2.88 1.856 6.208 2.88 9.472 2.88 1.28 0 2.432-0.128 3.712-0.384 4.544-1.024 8.512-3.904 10.88-8l23.936-39.232c4.928-8.128 2.688-18.88-4.928-24.128L541.44 476.032z" p-id="10492" fill="#666666"></path></svg>